<svg xmlns="http://www.w3.org/2000/svg" width="800" height="800" viewBox="0 0 800 800" role="img" aria-label="Internet en TV pakket, 500 Mbit/s">
  <defs>
    <linearGradient id="bg" x1="0" y1="0" x2="1" y2="1">
      <stop offset="0" stop-color="#fdfaf3"/>
      <stop offset="1" stop-color="#edf7f2"/>
    </linearGradient>
    <linearGradient id="screen" x1="0" y1="0" x2="1" y2="1">
      <stop offset="0" stop-color="#06483d"/>
      <stop offset="1" stop-color="#0b6c5d"/>
    </linearGradient>
    <filter id="shadow" x="-20%" y="-20%" width="140%" height="140%">
      <feDropShadow dx="0" dy="18" stdDeviation="18" flood-color="#06483d" flood-opacity=".16"/>
    </filter>
  </defs>
  <rect width="800" height="800" rx="84" fill="url(#bg)"/>
  <circle cx="690" cy="112" r="150" fill="#f28c00" opacity=".12"/>
  <circle cx="96" cy="710" r="180" fill="#0b6c5d" opacity=".10"/>
  <g filter="url(#shadow)">
    <rect x="112" y="148" width="576" height="350" rx="38" fill="#ffffff" stroke="#d8e8e1" stroke-width="8"/>
    <rect x="144" y="180" width="512" height="286" rx="25" fill="url(#screen)"/>
    <path d="M336 548h128M400 498v50" stroke="#06483d" stroke-width="22" stroke-linecap="round"/>
  </g>
  <g transform="translate(500 340)">
    <rect x="0" y="0" width="182" height="116" rx="26" fill="#ffffff" stroke="#d8e8e1" stroke-width="7"/>
    <circle cx="42" cy="82" r="8" fill="#0b6c5d"/>
    <circle cx="68" cy="82" r="8" fill="#0b6c5d"/>
    <circle cx="94" cy="82" r="8" fill="#0b6c5d"/>
    <path d="M52 56c25-25 53-25 78 0M69 70c15-14 29-14 44 0M90 82h2" fill="none" stroke="#f28c00" stroke-width="10" stroke-linecap="round"/>
  </g>
  <text x="400" y="282" text-anchor="middle" font-family="Inter,Arial,sans-serif" font-size="56" font-weight="900" fill="#ffffff">Internet &amp; TV</text>
  <rect x="150" y="590" width="500" height="104" rx="52" fill="#06483d"/>
  <text x="400" y="648" text-anchor="middle" dominant-baseline="middle" font-family="Inter,Arial,sans-serif" font-size="54" font-weight="950" fill="#ffffff">500 Mbit/s</text>
  <text x="400" y="738" text-anchor="middle" font-family="Inter,Arial,sans-serif" font-size="27" font-weight="750" fill="#365f55">Internet &amp; TV pakket</text>
</svg>